<svg id="visual" viewBox="0 0 900 600" width="900" height="600" xmlns="http://www.w3.org/2000/svg" xmlns:xlink="http://www.w3.org/1999/xlink" version="1.1"><rect x="0" y="0" width="900" height="600" fill="#fff"></rect><defs><linearGradient id="grad1_0" x1="33.3%" y1="100%" x2="100%" y2="0%"><stop offset="20%" stop-color="#ffffff" stop-opacity="1"></stop><stop offset="80%" stop-color="#ffffff" stop-opacity="1"></stop></linearGradient></defs><defs><linearGradient id="grad2_0" x1="0%" y1="100%" x2="66.7%" y2="0%"><stop offset="20%" stop-color="#ffffff" stop-opacity="1"></stop><stop offset="80%" stop-color="#ffffff" stop-opacity="1"></stop></linearGradient></defs><g transform="translate(900, 600)"><path d="M-513.8 0C-427.4 -19.5 -341.1 -39.1 -345.1 -78.8C-349.2 -118.5 -443.5 -178.4 -460.4 -221.7C-477.2 -265.1 -416.5 -291.9 -355.7 -283.7C-294.9 -275.5 -234 -232.3 -221.3 -277.6C-208.7 -322.8 -244.2 -456.3 -222.9 -462.9C-201.6 -469.5 -123.4 -349 -76.8 -336.4C-30.1 -323.7 -15.1 -418.7 0 -513.8L0 0Z" fill="#00AB44"></path></g><g transform="translate(0, 0)"><path d="M513.8 0C466.9 27.4 420.1 54.8 422.1 96.4C424.2 137.9 475.1 193.7 462.9 222.9C450.7 252.2 375.3 254.9 329.2 262.5C283 270.1 266.2 282.6 256.3 321.3C246.3 360.1 243.3 425 219.5 455.9C195.8 486.7 151.3 483.5 111.3 487.5C71.2 491.4 35.6 502.6 0 513.8L0 0Z" fill="#00AB44"></path></g></svg>