<svg id="visual" viewBox="0 0 900 600" width="900" height="600" xmlns="http://www.w3.org/2000/svg" xmlns:xlink="http://www.w3.org/1999/xlink" version="1.1"><rect x="0" y="0" width="900" height="600" fill="#fff"></rect><defs><linearGradient id="grad1_0" x1="33.3%" y1="0%" x2="100%" y2="100%"><stop offset="20%" stop-color="#ffffff" stop-opacity="1"></stop><stop offset="80%" stop-color="#ffffff" stop-opacity="1"></stop></linearGradient></defs><defs><linearGradient id="grad2_0" x1="0%" y1="0%" x2="66.7%" y2="100%"><stop offset="20%" stop-color="#ffffff" stop-opacity="1"></stop><stop offset="80%" stop-color="#ffffff" stop-opacity="1"></stop></linearGradient></defs><g transform="translate(900, 0)"><path d="M0 486.7C-37.6 480.3 -75.3 473.9 -102.8 450.4C-130.3 426.9 -147.7 386.2 -180.1 373.9C-212.4 361.6 -259.6 377.6 -289.3 362.8C-319 347.9 -331 302.3 -326.8 260.6C-322.6 219 -302.1 181.3 -331.6 159.7C-361 138 -440.4 132.3 -474.5 108.3C-508.7 84.4 -497.7 42.2 -486.7 0L0 0Z" fill="#00AB44"></path></g><g transform="translate(0, 600)"><path d="M0 -486.7C36.9 -475.8 73.7 -464.9 100.1 -438.7C126.6 -412.5 142.5 -371.1 170.1 -353.2C197.6 -335.2 236.8 -340.7 260.6 -326.8C284.5 -312.9 293.1 -279.6 326.8 -260.6C360.5 -241.6 419.4 -236.9 438.5 -211.2C457.7 -185.5 437.3 -138.8 438.7 -100.1C440.1 -61.4 463.4 -30.7 486.7 0L0 0Z" fill="#00AB44"></path></g></svg>