<?xml version="1.0" standalone="no"?><svg xmlns="http://www.w3.org/2000/svg" viewBox="0 0 1440 320"><path fill="#00AB44" fill-opacity="1" d="M0,192L30,170.7C60,149,120,107,180,117.3C240,128,300,192,360,202.7C420,213,480,171,540,181.3C600,192,660,256,720,266.7C780,277,840,235,900,224C960,213,1020,235,1080,250.7C1140,267,1200,277,1260,245.3C1320,213,1380,139,1410,101.3L1440,64L1440,320L1410,320C1380,320,1320,320,1260,320C1200,320,1140,320,1080,320C1020,320,960,320,900,320C840,320,780,320,720,320C660,320,600,320,540,320C480,320,420,320,360,320C300,320,240,320,180,320C120,320,60,320,30,320L0,320Z"></path></svg>